<svg
										xmlns="http://www.w3.org/2000/svg"
										aria-hidden="true"
										role="img"
										width="1em"
										height="1em"
										viewBox="0 0 22 22"
										style="vertical-align: -0.125em;"
									>
										<path
											fill="none"
											stroke="currentColor"
											stroke-linecap="round"
											stroke-linejoin="round"
											stroke-width="1.5"
											d="m20.167 9.625-.435-3.48c-.17-1.364-.256-2.046-.577-2.56a2.75 2.75 0 00-1.176-1.038c-.55-.255-1.238-.255-2.613-.255H6.634c-1.375 0-2.063 0-2.613.255a2.75 2.75 0 00-1.176 1.038c-.32.514-.406 1.196-.577 2.56l-.435 3.48m3.209 3.667h11.916m-11.916 0a3.208 3.208 0 010-6.417h11.916a3.208 3.208 0 110 6.417m-11.916 0a3.208 3.208 0 100 6.416h11.916a3.208 3.208 0 100-6.416M5.5 10.083h.01M5.5 16.5h.01M11 10.083h5.5M11 16.5h5.5"
										></path>
									</svg>
